<svg width="80" height="81" viewBox="0 0 80 81" fill="none" xmlns="http://www.w3.org/2000/svg">
<g clip-path="url(#clip0_289_7256)">
<path fill-rule="evenodd" clip-rule="evenodd" d="M1.66663 78.6667H78.3333V2H1.66663V78.6667Z" stroke="#089669" stroke-width="3.33333" stroke-linecap="round" stroke-linejoin="round"/>
<path fill-rule="evenodd" clip-rule="evenodd" d="M11.6666 52H51.6666V12H11.6666V52Z" stroke="#089669" stroke-width="3.33333" stroke-linecap="round" stroke-linejoin="round"/>
<path d="M11.6666 12L51.6666 52" stroke="#089669" stroke-width="3.33333" stroke-linecap="round" stroke-linejoin="round"/>
<path d="M11.6666 52L51.6666 12" stroke="#089669" stroke-width="3.33333" stroke-linecap="round" stroke-linejoin="round"/>
<path fill-rule="evenodd" clip-rule="evenodd" d="M45 32.0003C45 39.367 39.0334 45.3337 31.6667 45.3337C24.3 45.3337 18.3334 39.367 18.3334 32.0003C18.3334 24.637 24.3 18.667 31.6667 18.667C39.0334 18.667 45 24.637 45 32.0003V32.0003Z" stroke="#089669" stroke-width="3.33333" stroke-linecap="round" stroke-linejoin="round"/>
<path d="M65 12H71.6667" stroke="#089669" stroke-width="3.33333" stroke-linecap="round" stroke-linejoin="round"/>
<path d="M65 18.667H71.6667" stroke="#089669" stroke-width="3.33333" stroke-linecap="round" stroke-linejoin="round"/>
<path d="M65 25.3335H71.6667" stroke="#089669" stroke-width="3.33333" stroke-linecap="round" stroke-linejoin="round"/>
<path d="M65 45.3335H71.6667" stroke="#089669" stroke-width="3.33333" stroke-linecap="round" stroke-linejoin="round"/>
<path d="M65 52H71.6667" stroke="#089669" stroke-width="3.33333" stroke-linecap="round" stroke-linejoin="round"/>
<path fill-rule="evenodd" clip-rule="evenodd" d="M61.6667 72H71.6667V62H61.6667V72Z" stroke="#089669" stroke-width="3.33333" stroke-linecap="round" stroke-linejoin="round"/>
<path fill-rule="evenodd" clip-rule="evenodd" d="M45 72H55V62H45V72Z" stroke="#089669" stroke-width="3.33333" stroke-linecap="round" stroke-linejoin="round"/>
<path d="M11.6666 62H35" stroke="#089669" stroke-width="3.33333" stroke-linecap="round" stroke-linejoin="round"/>
<path d="M11.6666 72H28.3333" stroke="#089669" stroke-width="3.33333" stroke-linecap="round" stroke-linejoin="round"/>
</g>
<defs>
<clipPath id="clip0_289_7256">
<rect width="80" height="80" fill="white" transform="translate(0 0.333496)"/>
</clipPath>
</defs>
</svg>
